<?xml version="1.0" encoding="iso-8859-1"?>
<!-- Generator: Adobe Illustrator 19.0.0, SVG Export Plug-In . SVG Version: 6.00 Build 0)  -->
<svg version="1.1" id="Capa_1" xmlns="http://www.w3.org/2000/svg" xmlns:xlink="http://www.w3.org/1999/xlink" x="0px" y="0px"
	 viewBox="0 0 508.1 508.1" style="enable-background:new 0 0 508.1 508.1;" xml:space="preserve">
<path style="fill:#F2F2F2;" d="M449.65,124.2l-1,12.1l-27.8,352.4c-1,11-10.1,19.4-21.1,19.4h-291.4c-11.1,0-20.2-8.4-21.2-19.4
	l-27.8-352.4l-1-12.1C58.35,124.2,449.65,124.2,449.65,124.2z"/>
<path style="fill:#4CDBC4;" d="M459.05,57.6h-410c-1.1,0-2,0.9-2,2v64.6h414V59.6C461.05,58.5,460.15,57.6,459.05,57.6z"/>
<path style="fill:#40596B;" d="M179.85,57.6l8.4-25.5c1.1-3.3,4.1-5.5,7.6-5.5h116.4c3.5,0,6.5,2.2,7.6,5.5l8.5,25.5h28.1
	l-11.2-33.9c-4.8-14.2-18.1-23.7-33-23.7h-116.4c-14.9,0-28.2,9.5-32.9,23.7l-11.2,33.9C151.75,57.6,179.85,57.6,179.85,57.6z"/>
<g>
	<path style="fill:#FFFFFF;" d="M170.35,184.4c-10.6,0-19.2,8.6-19.2,19.2v225.1c0,10.6,8.6,19.2,19.2,19.2
		c10.6,0,19.2-8.6,19.2-19.2V203.6C189.55,193,180.95,184.4,170.35,184.4z"/>
	<path style="fill:#FFFFFF;" d="M254.05,184.4c-10.6,0-19.2,8.6-19.2,19.2v225.1c0,10.6,8.6,19.2,19.2,19.2
		c10.6,0,19.2-8.6,19.2-19.2V203.6C273.25,193,264.65,184.4,254.05,184.4z"/>
	<path style="fill:#FFFFFF;" d="M337.75,184.4L337.75,184.4c-10.6,0-19.2,8.6-19.2,19.2v225.1c0,10.6,8.6,19.2,19.2,19.2l0,0
		c10.6,0,19.2-8.6,19.2-19.2V203.6C356.95,193,348.35,184.4,337.75,184.4z"/>
</g>
<polygon style="fill:#E8E8E8;" points="449.65,124.2 448.75,136.3 59.35,136.3 58.35,124.2 "/>
<g>
</g>
<g>
</g>
<g>
</g>
<g>
</g>
<g>
</g>
<g>
</g>
<g>
</g>
<g>
</g>
<g>
</g>
<g>
</g>
<g>
</g>
<g>
</g>
<g>
</g>
<g>
</g>
<g>
</g>
</svg>
